<svg xmlns="http://www.w3.org/2000/svg" viewBox="0 0 128 128"><defs><linearGradient id="a" x1="115.75" y1="103.02" x2="24.13" y2="12.83" gradientUnits="userSpaceOnUse"><stop offset="0" stop-color="#4299e1"/><stop offset="1" stop-color="#81e6d9"/></linearGradient></defs><title>react</title><path d="M64,0A64,64,0,1,0,128,64,64,64,0,0,0,64,0Zm0,119.5A55.5,55.5,0,1,1,119.5,64,55.5,55.5,0,0,1,64,119.5Z" fill="url(#a)"/><path d="M64,28.6a3.2,3.2,0,0,0-3.2,3.2V60.8a3.2,3.2,0,0,0,6.4,0V31.8A3.2,3.2,0,0,0,64,28.6Zm21,34.4a3.2,3.2,0,0,0-2.4-5.8l-18-10.4a3.2,3.2,0,0,0-4,5.4l18,10.4a3.2,3.2,0,0,0,2.4.6Zm-42,0a3.2,3.2,0,0,0-2.4-.6l-18-10.4a3.2,3.2,0,0,0-4,5.4l18,10.4a3.2,3.2,0,0,0,2.4.6Zm-2,21.8a3.2,3.2,0,0,0-3.2,3.2V96a3.2,3.2,0,0,0,6.4,0V87.6A3.2,3.2,0,0,0,64,84.4Zm-21-34.4a3.2,3.2,0,0,0-2.4.6l-18,10.4a3.2,3.2,0,0,0-4-5.4l18-10.4a3.2,3.2,0,0,0,2.4.6Zm42,0a3.2,3.2,0,0,0-2.4.6l-18,10.4a3.2,3.2,0,0,0-4-5.4l18-10.4a3.2,3.2,0,0,0,2.4.6Z" fill="#61dafb"/></svg>
